# xmcd
# 
# Track frame offsets:
#     225
#     16346
#     35635
#     47123
#     61621
#     79718
#     91374
#     105357
#     122007
#     132709
# 
# Disc length: 1940
# 
# Revision: 3
# Processed by: cddbd v1.5.2PL0 Copyright (c) Steve Scherf et al.
# Submitted via: fre:ac v1.0.17
# 
DISCID=7c07910a
DTITLE=Amy Winehouse - Back To Black
DYEAR=2007
DGENRE=R&B
TTITLE0=Rehab
TTITLE1=You Know I'm No Good
TTITLE2=Me and Ms. Jones
TTITLE3=Just Friends
TTITLE4=Back To Black
TTITLE5=Love Is a Losing Game
TTITLE6=Tears Dry On My Own
TTITLE7=Wake Up Alone
TTITLE8=Some Unholy War
TTITLE9=He Can Only Hold Her
EXTD=Ano 2007
EXTT0=
EXTT1=
EXTT2=
EXTT3=
EXTT4=
EXTT5=
EXTT6=
EXTT7=
EXTT8=
EXTT9=
PLAYORDER=
